<?xml version="1.0" encoding="UTF-8" standalone="no"?>
<svg
   xmlns:dc="http://purl.org/dc/elements/1.1/"
   xmlns:cc="http://creativecommons.org/ns#"
   xmlns:rdf="http://www.w3.org/1999/02/22-rdf-syntax-ns#"
   xmlns:svg="http://www.w3.org/2000/svg"
   xmlns="http://www.w3.org/2000/svg"
   version="1.1"
   id="svg2"
   viewBox="0 0 956.69291 354.33071"
   height="100mm"
   width="270mm">
  <defs
     id="defs4" />
  <metadata
     id="metadata7">
    <rdf:RDF>
      <cc:Work
         rdf:about="">
        <dc:format>image/svg+xml</dc:format>
        <dc:type
           rdf:resource="http://purl.org/dc/dcmitype/StillImage" />
        <dc:title></dc:title>
      </cc:Work>
    </rdf:RDF>
  </metadata>
  <g
     transform="translate(0,-698.0315)"
     id="layer1">
    <g
       transform="translate(-47.834648,26.406046)"
       id="g4192">
      <path
         style="fill:#000000;fill-opacity:1;stroke:none;stroke-width:10;stroke-miterlimit:4;stroke-dasharray:none;stroke-opacity:1"
         d="m 109.39539,893.79079 0,100 200,0 0,-100 -35.30469,0 a 65.714287,84.285713 0 0 1 -64.69531,70 65.714287,84.285713 0 0 1 -64.76172,-70 l -35.23828,0 z"
         id="rect4136" />
      <path
         style="fill:#000000;fill-opacity:1;stroke:none;stroke-width:10;stroke-miterlimit:4;stroke-dasharray:none;stroke-opacity:1"
         d="m 426.1811,893.79079 0,100 200,0 0,-100 -35.30469,0 a 65.714287,84.285713 0 0 1 -64.69531,70 65.714287,84.285713 0 0 1 -64.76172,-70 l -35.23828,0 z"
         id="rect4136-3" />
      <path
         style="fill:#000000;fill-opacity:1;stroke:none;stroke-width:10;stroke-miterlimit:4;stroke-dasharray:none;stroke-opacity:1"
         d="m 742.96682,893.79078 0,100.00002 200,0 0,-100.00002 -35.30469,0 A 65.714287,84.285713 0 0 1 842.96682,963.7908 65.714287,84.285713 0 0 1 778.2051,893.79078 l -35.23828,0 z"
         id="rect4136-6" />
      <rect
         style="fill:#ff0000;fill-opacity:1;stroke:none;stroke-width:10;stroke-miterlimit:4;stroke-dasharray:none;stroke-opacity:1"
         id="rect4171"
         width="150"
         height="120"
         x="128.57143"
         y="755.21924" />
      <ellipse
         style="fill:#0000ff;fill-opacity:1;stroke:none;stroke-width:10;stroke-miterlimit:4;stroke-dasharray:none;stroke-opacity:1"
         id="path4173"
         cx="525.71429"
         cy="850.93359"
         rx="31.428572"
         ry="107.14286" />
      <ellipse
         style="fill:#00ff00;fill-opacity:1;stroke:none;stroke-width:10;stroke-miterlimit:4;stroke-dasharray:none;stroke-opacity:1"
         id="path4190"
         cx="842.85712"
         cy="832.36224"
         rx="68.571426"
         ry="128.57143" />
    </g>
  </g>
</svg>
